<svg width="149" height="149" viewBox="0 0 149 149" fill="none" xmlns="http://www.w3.org/2000/svg">
<path d="M73.4533 78.8701L74.6737 77.7512L90.8242 92.076C94.2913 95.0783 98.7883 97.3212 103.336 96.7253C104.91 96.519 106.293 96.1119 107.157 95.7635C109.26 95.1854 111.262 93.7968 113.021 92.1296C117.746 87.6519 120.595 78.2247 119.767 71.7679C118.953 65.4253 117.599 61.5205 112.868 57.219C111.673 56.1331 110.2 55.1334 108.376 54.3494C101.648 51.4561 96.1264 53.6403 92.2259 56.9023L74.6737 72.8581L58.828 58.5334C53.4039 53.853 50.4989 53.9003 48.2845 53.853C36.8756 53.1722 31.3824 63.1192 30.062 68.1778C28.5383 72.9527 27.4901 84.4172 35.4861 92.076C46.4937 102.619 62.2177 89.1704 73.4533 78.8701Z" fill="white"/>
<path d="M74.2846 77.5955L74.6546 77.3051L89.0303 88.1951C92.1751 90.5591 96.0661 92.2095 99.9798 91.808C101.458 91.6563 102.766 91.3257 103.569 91.0446C105.537 90.5745 107.408 89.4112 109.031 88.0334C112.926 84.7281 115.548 77.4822 114.782 72.4319C114.043 67.5636 112.709 64.636 108.927 61.4834C107.817 60.5584 106.42 59.7019 104.654 59.0427C98.6647 56.807 93.7499 58.4947 90.278 61.0154L74.6546 73.3449L60.5502 62.2758C55.7222 58.6591 53.1363 58.6957 51.1653 58.6591C41.0102 58.1331 36.1206 65.8194 34.9453 69.7283C33.5891 73.418 32.656 82.2769 39.7733 88.1951C49.972 96.6754 63.6837 85.9148 74.1469 77.7036L74.2846 77.5955Z" fill="#DD016D"/>
</svg>
